<?xml version="1.0" encoding="UTF-8"?>
<svg id="Capa_2" data-name="Capa 2" xmlns="http://www.w3.org/2000/svg" viewBox="0 0 36.99 21.53">
  <defs>
    <style>
      .cls-1 {
        fill: #1d1d1b;
      }

      .cls-2 {
        fill: none;
        stroke: #1d1d1b;
        stroke-miterlimit: 10;
        stroke-width: 2px;
      }
    </style>
  </defs>
  <g id="Capa_1-2" data-name="Capa 1">
    <g>
      <path class="cls-2" d="M3.64,1.1c-.75,2.2-1.5,4.4-2.24,6.59h34.23c-.7-2.23-1.4-4.46-2.1-6.69-9.96.03-19.92.07-29.88.1Z"/>
      <path class="cls-2" d="M3.64,8.05v12.49h29.88V7.7c-9.96.12-19.92.23-29.88.35Z"/>
      <g>
        <path class="cls-1" d="M20.74,16.91c-.66.64-1.42.05-2.14.01s-1.62.64-2.3.01c-.54-.5-.42-1.29-.02-1.84.18-.25.43-.44.63-.67.51-.59.81-1.62,1.8-1.45.62.11.92.85,1.27,1.29.28.35.66.61.88,1.01.3.54.34,1.18-.13,1.63Z"/>
        <path class="cls-1" d="M19.83,10.34c.64.01.82.78.77,1.3-.06.61-.63,1.47-1.33,1.17-.94-.4-.53-2.49.56-2.46Z"/>
        <path class="cls-1" d="M17.06,10.36c1.31-.22,1.68,2.33.53,2.5-1.24.18-1.59-2.32-.53-2.5Z"/>
        <path class="cls-1" d="M21.49,12.33c1.34-.21,1.06,2.1-.13,2.23-1.26.14-.99-2.05.13-2.23Z"/>
        <path class="cls-1" d="M15.24,12.33c1.28-.19,1.79,2.13.61,2.23s-1.67-2.07-.61-2.23Z"/>
      </g>
    </g>
  </g>
</svg>