<?xml version="1.0" encoding="UTF-8"?>
<svg id="Capa_2" data-name="Capa 2" xmlns="http://www.w3.org/2000/svg" viewBox="0 0 34.62 26.61">
  <defs>
    <style>
      .cls-1 {
        fill: #1d1d1b;
        stroke: #fff;
        stroke-width: .25px;
      }

      .cls-1, .cls-2, .cls-3 {
        stroke-miterlimit: 10;
      }

      .cls-2 {
        fill: none;
        stroke-width: 1.92px;
      }

      .cls-2, .cls-3 {
        stroke: #1d1d1b;
      }

      .cls-3 {
        fill: #fff;
        stroke-width: 2px;
      }
    </style>
  </defs>
  <g id="Capa_1-2" data-name="Capa 1">
    <g>
      <rect class="cls-2" x=".96" y=".96" width="32.7" height="24.69" rx="2.52" ry="2.52"/>
      <path class="cls-3" d="M2.67,2.91c4.57,4.09,9.14,8.17,13.71,12.26.27.24.65.25.93.02,4.96-4.09,9.91-8.17,14.87-12.26.57-.47.26-1.45-.45-1.45H3.15c-.7,0-1.02.94-.48,1.43Z"/>
      <g>
        <path class="cls-1" d="M19.14,18.29c-.69.67-1.48.05-2.23.01s-1.7.67-2.4.01c-.57-.53-.44-1.35-.02-1.92.19-.27.45-.46.66-.7.53-.62.85-1.69,1.88-1.52.65.11.96.89,1.32,1.35.29.37.69.64.92,1.06.31.56.35,1.23-.13,1.71Z"/>
        <path class="cls-1" d="M18.19,11.43c.67.01.86.82.81,1.36-.06.63-.66,1.53-1.39,1.22-.98-.42-.55-2.6.58-2.57Z"/>
        <path class="cls-1" d="M15.29,11.45c1.37-.23,1.75,2.43.55,2.61-1.29.19-1.66-2.42-.55-2.61Z"/>
        <path class="cls-1" d="M19.92,13.5c1.39-.22,1.11,2.19-.14,2.33-1.31.14-1.04-2.15.14-2.33Z"/>
        <path class="cls-1" d="M13.39,13.5c1.34-.2,1.87,2.23.64,2.33s-1.74-2.17-.64-2.33Z"/>
      </g>
    </g>
  </g>
</svg>