<?xml version="1.0" encoding="UTF-8"?>
<svg id="Capa_1" xmlns="http://www.w3.org/2000/svg" version="1.1" viewBox="0 0 500.86 93.97">
  <!-- Generator: Adobe Illustrator 29.3.1, SVG Export Plug-In . SVG Version: 2.1.0 Build 151)  -->
  <defs>
    <style>
      .st0 {
        fill: #fff;
      }
    </style>
  </defs>
  <g>
    <path class="st0" d="M154.1,65.96c-2.34,0-4.33-.29-5.96-.86-1.63-.58-2.96-1.26-4-2.04-1.04-.79-1.82-1.51-2.36-2.16-.54-.65-.86-1.06-.98-1.21-.77-.96-1.24-1.82-1.41-2.59-.17-.77-.06-1.53.35-2.3.4-.77,1.08-1.61,2.04-2.53.88-.84,1.75-1.31,2.59-1.41.84-.1,1.68.09,2.5.55.82.46,1.62,1.13,2.39,2.01.92,1.04,1.71,1.74,2.36,2.1.65.37,1.4.55,2.25.55,1.04,0,1.88-.12,2.53-.37.65-.25,1.13-.63,1.44-1.15.31-.52.46-1.18.46-1.99,0-.65-.33-1.16-.98-1.53-.65-.36-1.51-.68-2.56-.95-1.06-.27-2.24-.57-3.54-.89-1.31-.33-2.59-.76-3.86-1.3-.77-.31-1.52-.69-2.25-1.15-.73-.46-1.41-.99-2.04-1.58-.63-.59-1.18-1.3-1.64-2.13-.46-.82-.82-1.76-1.06-2.79-.25-1.04-.37-2.21-.37-3.51,0-2.34.58-4.43,1.76-6.27,1.17-1.84,2.78-3.3,4.84-4.38,2.05-1.07,4.38-1.61,6.99-1.61,1.88,0,3.49.15,4.84.46,1.34.31,2.45.67,3.31,1.09.86.42,1.53.82,1.99,1.18.46.37.75.6.86.72,1.27,1.15,1.96,2.14,2.07,2.96.12.83-.35,2.01-1.38,3.54-1.15,1.65-2.28,2.58-3.4,2.79-1.11.21-2.4-.14-3.86-1.06-.31-.23-.61-.49-.92-.78-.31-.29-.72-.54-1.24-.75-.52-.21-1.3-.32-2.33-.32-.38,0-.77.07-1.15.2-.38.13-.71.31-.98.52-.27.21-.49.47-.66.78-.17.31-.26.63-.26.98,0,.81.31,1.43.92,1.87.61.44,1.43.78,2.45,1.01,1.02.23,2.14.46,3.37.69,1.23.23,2.48.54,3.74.92,1.04.35,2.03.79,2.99,1.32.96.54,1.8,1.23,2.53,2.07.73.84,1.31,1.89,1.76,3.14.44,1.25.66,2.77.66,4.58,0,2.5-.48,4.61-1.44,6.36-.96,1.75-2.2,3.15-3.71,4.2-1.52,1.06-3.13,1.82-4.84,2.3-1.71.48-3.31.72-4.81.72Z"/>
    <path class="st0" d="M186.28,66.01c-2.88,0-5.32-.47-7.31-1.41-2-.94-3.61-2.17-4.83-3.68-1.23-1.52-2.13-3.16-2.71-4.92-.58-1.76-.86-3.47-.86-5.12,0-3.03.67-5.7,2.02-8,1.34-2.3,3.2-4.11,5.58-5.41,2.38-1.3,5.1-1.96,8.17-1.96,2.38,0,4.41.38,6.1,1.15,1.69.77,3.06,1.75,4.12,2.94,1.05,1.19,1.83,2.46,2.33,3.8.5,1.34.75,2.59.75,3.74,0,2.19-.54,3.86-1.61,5.01-1.07,1.15-2.46,1.73-4.14,1.73h-12.26c.15.61.47,1.14.95,1.58.48.44,1.08.79,1.81,1.04.73.25,1.52.37,2.36.37s1.59-.05,2.25-.14c.65-.1,1.22-.22,1.7-.37.48-.15.92-.31,1.32-.46.4-.15.77-.28,1.09-.37.33-.1.64-.14.95-.14.69,0,1.32.23,1.9.69s1.09,1.15,1.55,2.07c.27.5.46.97.58,1.41.12.44.17.85.17,1.24,0,1.15-.47,2.11-1.41,2.88-.94.77-2.29,1.35-4.06,1.76-1.77.4-3.93.6-6.5.6ZM181.62,48.46h6.45c.54,0,.93-.11,1.18-.35.25-.23.37-.58.37-1.04,0-.5-.14-.92-.43-1.27-.29-.35-.68-.6-1.18-.78-.5-.17-1.09-.26-1.78-.26-.92,0-1.73.18-2.42.55-.69.37-1.22.83-1.58,1.38-.37.56-.57,1.14-.6,1.76Z"/>
    <path class="st0" d="M217.07,66.01c-2.88,0-5.32-.47-7.31-1.41-2-.94-3.61-2.17-4.83-3.68-1.23-1.52-2.13-3.16-2.71-4.92-.58-1.76-.86-3.47-.86-5.12,0-3.03.67-5.7,2.02-8,1.34-2.3,3.2-4.11,5.58-5.41,2.38-1.3,5.1-1.96,8.17-1.96,2.38,0,4.41.38,6.1,1.15,1.69.77,3.06,1.75,4.12,2.94,1.05,1.19,1.83,2.46,2.33,3.8.5,1.34.75,2.59.75,3.74,0,2.19-.54,3.86-1.61,5.01-1.07,1.15-2.46,1.73-4.14,1.73h-12.26c.15.61.47,1.14.95,1.58.48.44,1.08.79,1.81,1.04.73.25,1.52.37,2.36.37s1.59-.05,2.25-.14c.65-.1,1.22-.22,1.7-.37.48-.15.92-.31,1.32-.46.4-.15.77-.28,1.09-.37.33-.1.64-.14.95-.14.69,0,1.32.23,1.9.69s1.09,1.15,1.55,2.07c.27.5.46.97.58,1.41.12.44.17.85.17,1.24,0,1.15-.47,2.11-1.41,2.88-.94.77-2.29,1.35-4.06,1.76-1.77.4-3.93.6-6.5.6ZM212.41,48.46h6.45c.54,0,.93-.11,1.18-.35.25-.23.37-.58.37-1.04,0-.5-.14-.92-.43-1.27-.29-.35-.68-.6-1.18-.78-.5-.17-1.09-.26-1.78-.26-.92,0-1.73.18-2.42.55-.69.37-1.22.83-1.58,1.38-.37.56-.57,1.14-.6,1.76Z"/>
    <path class="st0" d="M257.94,55.88c1.42,1.27,2.18,2.47,2.27,3.6.1,1.13-.55,2.43-1.93,3.89-1.04,1.07-1.93,1.77-2.68,2.1-.75.33-1.49.33-2.22,0-.73-.33-1.59-.93-2.59-1.81l-7.08-6.62v3.17c0,.84-.08,1.67-.23,2.48-.15.81-.59,1.46-1.3,1.96-.71.5-1.95.75-3.71.75s-2.96-.26-3.68-.78c-.73-.52-1.16-1.18-1.29-1.99-.14-.81-.2-1.63-.2-2.48V28.08c0-.88.08-1.72.23-2.5.15-.79.59-1.44,1.32-1.96.73-.52,1.96-.78,3.68-.78s2.94.26,3.66.78c.71.52,1.14,1.18,1.3,1.99.15.81.23,1.65.23,2.53v15.89l4.89-4.78c.92-.88,1.78-1.49,2.59-1.81.81-.33,1.6-.35,2.39-.06.79.29,1.62.91,2.5,1.87,1.5,1.61,2.22,2.92,2.16,3.91-.06,1-.78,2.19-2.16,3.57l-4.66,4.09,6.5,5.07Z"/>
    <path class="st0" d="M278.26,36.48h6.74l7.94-.29c.84,0,1.66.08,2.45.23.79.15,1.44.6,1.96,1.32.52.73.78,1.98.78,3.74,0,1.61-.26,2.78-.78,3.51-.52.73-1.17,1.19-1.96,1.38-.79.19-1.62.29-2.5.29l-7.31-.17h-7.54c-1.31-.08-2.21-.5-2.71-1.27-.5-.77-.75-2.03-.75-3.8,0-1.65.31-2.89.92-3.71.61-.82,1.53-1.24,2.76-1.24ZM284.65,65.44c-1.69,0-2.9-.26-3.63-.78-.73-.52-1.17-1.19-1.32-2.01-.15-.82-.23-1.66-.23-2.5v-25.96c0-1.23.23-2.5.69-3.83.46-1.32,1.18-2.55,2.16-3.68.98-1.13,2.23-2.05,3.74-2.76,1.52-.71,3.33-1.06,5.44-1.06.84,0,1.67.08,2.48.23.81.15,1.47.59,1.99,1.29.52.71.78,1.95.78,3.71s-.27,2.96-.81,3.68c-.54.73-1.21,1.16-2.01,1.3-.81.13-1.63.2-2.48.2-.27,0-.5.02-.69.06-.19.04-.35.09-.46.14-.11.06-.2.14-.26.26-.06.12-.09.23-.09.35v26.19c0,.84-.08,1.66-.23,2.45-.15.79-.6,1.44-1.35,1.96s-1.99.78-3.71.78Z"/>
    <path class="st0" d="M314.53,65.9c-1.77,0-3.55-.36-5.35-1.06-1.8-.71-3.46-1.73-4.98-3.05-1.52-1.32-2.72-2.92-3.63-4.78-.9-1.86-1.35-3.94-1.35-6.25,0-2.11.4-4.09,1.21-5.93.81-1.84,1.91-3.46,3.31-4.86,1.4-1.4,3.01-2.5,4.83-3.31,1.82-.81,3.77-1.21,5.84-1.21,2.84,0,5.41.68,7.71,2.04,2.3,1.36,4.14,3.19,5.53,5.5,1.38,2.3,2.07,4.87,2.07,7.71,0,2.42-.46,4.57-1.38,6.45-.92,1.88-2.13,3.47-3.63,4.78-1.5,1.3-3.14,2.29-4.92,2.96-1.78.67-3.54,1.01-5.27,1.01ZM314.41,55.36c.58,0,1.24-.14,1.99-.43.75-.29,1.4-.78,1.96-1.47.56-.69.83-1.63.83-2.82,0-.96-.2-1.78-.6-2.48-.4-.69-.97-1.23-1.7-1.61-.73-.38-1.57-.58-2.53-.58-.84,0-1.61.2-2.3.6-.69.4-1.25.96-1.67,1.67-.42.71-.63,1.53-.63,2.45,0,1.15.27,2.07.81,2.76.54.69,1.17,1.18,1.9,1.47.73.29,1.38.43,1.96.43Z"/>
    <path class="st0" d="M337.44,65.38c-1.73,0-2.96-.26-3.68-.78-.73-.52-1.16-1.19-1.3-2.01-.13-.82-.2-1.66-.2-2.5v-18.77c0-.88.08-1.72.23-2.5.15-.79.59-1.43,1.32-1.93.73-.5,1.96-.75,3.68-.75s2.89.23,3.6.69c.71.46,1.14.97,1.29,1.53.15.56.23.99.23,1.29l-.92-.35c.61-.69,1.22-1.27,1.81-1.73.59-.46,1.3-.86,2.13-1.21.82-.35,1.76-.52,2.79-.52.34,0,.78.03,1.29.09.52.06,1.07.16,1.67.32.59.15,1.15.38,1.67.69.52.31.94.71,1.27,1.21.33.5.49,1.11.49,1.84,0,1.92-.41,3.55-1.24,4.89-.83,1.34-1.91,2.01-3.25,2.01-.73,0-1.25-.05-1.55-.14-.31-.1-.53-.19-.66-.29-.13-.1-.29-.19-.46-.29-.17-.1-.49-.14-.95-.14-.58,0-1.1.07-1.58.2-.48.13-.9.34-1.27.6-.37.27-.64.59-.83.95-.19.36-.29.76-.29,1.18v11.23c0,.84-.08,1.67-.23,2.48-.15.81-.59,1.46-1.32,1.96-.73.5-1.98.75-3.74.75Z"/>
    <path class="st0" d="M375.54,77.58c-1.69,0-2.9-.25-3.63-.75-.73-.5-1.16-1.13-1.29-1.9-.14-.77-.2-1.57-.2-2.42v-31.26c0-.84.07-1.65.2-2.42.13-.77.56-1.41,1.27-1.93s1.91-.78,3.6-.78c1.34,0,2.46.18,3.34.55.88.37,1.52.93,1.9,1.7v34.08c.08.84.03,1.66-.14,2.45-.17.79-.62,1.43-1.35,1.93-.73.5-1.96.75-3.68.75ZM386.19,64.69c-1.88,0-3.51-.38-4.89-1.15-1.38-.77-2.51-1.81-3.4-3.14-.88-1.32-1.54-2.83-1.96-4.52-.42-1.69-.61-3.47-.58-5.35.04-1.84.28-3.63.72-5.35.44-1.73,1.1-3.26,1.99-4.61.88-1.34,2-2.41,3.34-3.19,1.34-.79,2.94-1.18,4.78-1.18,1.69,0,3.33.4,4.92,1.21,1.59.81,3.02,1.89,4.29,3.25,1.27,1.36,2.26,2.91,2.99,4.63.73,1.73,1.09,3.51,1.09,5.35s-.37,3.73-1.09,5.44c-.73,1.71-1.72,3.2-2.96,4.49-1.25,1.29-2.67,2.29-4.26,3.02-1.59.73-3.25,1.09-4.98,1.09ZM384.81,54.9c.77,0,1.47-.19,2.1-.58.63-.38,1.14-.89,1.53-1.53.38-.63.58-1.31.58-2.04,0-.77-.18-1.47-.55-2.1-.37-.63-.86-1.13-1.5-1.5-.63-.36-1.33-.55-2.1-.55s-1.47.19-2.1.58c-.63.38-1.13.88-1.5,1.5-.36.61-.55,1.31-.55,2.07s.19,1.41.58,2.04c.38.63.88,1.14,1.5,1.53.61.38,1.29.58,2.02.58Z"/>
    <path class="st0" d="M425.16,65.27c-1.73,0-3-.29-3.83-.86-.83-.58-1.22-1.23-1.18-1.96h.81c-.19.27-.57.62-1.12,1.06-.56.44-1.29.84-2.22,1.21s-2.05.55-3.4.55c-1.73,0-3.39-.39-4.98-1.18-1.59-.79-3.01-1.87-4.26-3.25-1.25-1.38-2.24-2.94-2.96-4.69-.73-1.75-1.09-3.58-1.09-5.5s.36-3.68,1.09-5.41c.73-1.73,1.73-3.27,2.99-4.63,1.27-1.36,2.69-2.44,4.26-3.22,1.57-.79,3.22-1.18,4.95-1.18,1.3,0,2.41.19,3.31.58.9.38,1.63.81,2.19,1.27s.93.84,1.12,1.15h-.63c-.04-.96.35-1.71,1.18-2.25.82-.54,2.1-.81,3.83-.81s2.94.26,3.66.78c.71.52,1.14,1.18,1.29,1.99.15.81.23,1.63.23,2.48v18.71c0,.84-.08,1.67-.23,2.48-.15.81-.59,1.46-1.29,1.96-.71.5-1.95.75-3.71.75ZM415.66,54.85c.73,0,1.39-.19,1.99-.58.59-.38,1.07-.89,1.44-1.53.36-.63.55-1.31.55-2.04,0-.77-.18-1.46-.55-2.07-.37-.61-.85-1.11-1.47-1.5-.61-.38-1.3-.58-2.07-.58s-1.47.19-2.1.58c-.63.38-1.14.89-1.53,1.53s-.58,1.33-.58,2.1.2,1.4.6,2.01c.4.61.93,1.11,1.58,1.5.65.38,1.36.58,2.13.58Z"/>
    <path class="st0" d="M445.65,65.55c-1.23,0-2.18-.25-2.85-.75-.67-.5-1.16-1.07-1.47-1.73-.31-.65-.56-1.19-.75-1.61l-7.66-18.82c-.31-1.07-.45-1.99-.43-2.73.02-.75.29-1.39.81-1.93.52-.54,1.33-1.02,2.45-1.44,1.76-.77,3.21-.99,4.35-.66,1.13.33,1.95,1.26,2.45,2.79l3.11,8.58,2.71-7.43c.15-.38.38-.86.69-1.44.31-.58.8-1.1,1.47-1.58.67-.48,1.58-.72,2.73-.72,1.27,0,2.24.24,2.94.72.69.48,1.21,1.02,1.55,1.61.35.6.58,1.08.69,1.47l2.65,7.37,2.76-7.66c.65-1.69,1.51-2.84,2.56-3.45,1.05-.61,2.45-.54,4.17.23,1.61.73,2.72,1.6,3.34,2.62.61,1.02.58,2.27-.12,3.77l-7.71,18.71c-.19.46-.44,1.02-.75,1.67-.31.65-.79,1.22-1.44,1.7s-1.57.72-2.76.72-2.17-.21-2.82-.63c-.65-.42-1.14-.95-1.47-1.58-.33-.63-.6-1.26-.83-1.87l-2.65-7.08-2.65,7.08c-.31.81-.6,1.52-.86,2.13-.27.61-.71,1.09-1.32,1.44-.61.35-1.57.52-2.88.52Z"/>
    <path class="st0" d="M487.16,65.9c-1.07,0-2.27-.12-3.6-.37-1.32-.25-2.61-.61-3.86-1.09-1.25-.48-2.27-1.05-3.08-1.7-.81-.65-1.21-1.4-1.21-2.25,0-.38.09-.81.26-1.29.17-.48.41-1.01.72-1.58.31-.58.69-1.19,1.15-1.84.27-.38.58-.67.95-.86.36-.19.8-.29,1.29-.29.69,0,1.36.14,2.01.43.65.29,1.3.61,1.96.98.65.37,1.33.69,2.04.98.71.29,1.47.43,2.27.43.73,0,1.28-.08,1.64-.23.36-.15.55-.38.55-.69s-.12-.56-.37-.75c-.25-.19-.6-.35-1.04-.49-.44-.13-.95-.26-1.53-.37s-1.19-.25-1.84-.4c-.65-.15-1.32-.35-2.01-.58-.88-.27-1.75-.62-2.59-1.06-.84-.44-1.6-1.03-2.27-1.76-.67-.73-1.21-1.61-1.61-2.65-.4-1.04-.6-2.3-.6-3.8,0-2,.46-3.66,1.38-5.01.92-1.34,2.28-2.36,4.09-3.05s4.03-1.04,6.68-1.04c.65,0,1.3.04,1.96.12.65.08,1.31.19,1.99.35.67.15,1.34.36,2.01.6.67.25,1.35.53,2.04.83,1.42.61,2.15,1.47,2.19,2.56.04,1.09-.37,2.24-1.21,3.43-.46.73-.93,1.28-1.41,1.64-.48.37-.97.55-1.47.55-.61,0-1.29-.17-2.01-.52-.73-.35-1.5-.69-2.3-1.04-.81-.35-1.61-.52-2.42-.52-.46,0-.85.05-1.18.14-.33.1-.57.23-.72.4-.15.17-.23.37-.23.6,0,.42.14.76.43,1.01.29.25.67.45,1.15.6.48.15,1.04.29,1.67.4.63.11,1.31.23,2.04.35,1,.15,2.02.39,3.08.72,1.05.33,2.02.8,2.91,1.41.88.61,1.59,1.46,2.13,2.53.54,1.07.81,2.48.81,4.2,0,3.26-1.08,5.74-3.25,7.43-2.17,1.69-5.36,2.53-9.58,2.53Z"/>
  </g>
  <g>
    <path class="st0" d="M83.37,89.89c-9.04,8.82-19.41.68-29.26.18-10.32-.52-22.23,8.8-31.51.18-7.43-6.9-5.73-17.69-.27-25.2,2.52-3.48,5.92-5.98,8.69-9.17,7.01-8.06,11.12-22.18,24.62-19.88,8.53,1.45,12.6,11.61,17.36,17.67,3.8,4.84,9.07,8.39,12.1,13.83,4.1,7.36,4.65,16.17-1.72,22.38Z"/>
    <path class="st0" d="M70.93,0c8.73.2,11.28,10.69,10.57,17.79-.83,8.32-8.62,20.07-18.23,15.95C50.37,28.21,56.02-.33,70.93,0Z"/>
    <path class="st0" d="M32.95.23c17.96-3.01,23,31.91,7.24,34.19C23.27,36.86,18.41,2.67,32.95.23Z"/>
    <path class="st0" d="M93.58,27.18c18.28-2.87,14.54,28.74-1.8,30.53-17.23,1.89-13.57-28.12,1.8-30.53Z"/>
    <path class="st0" d="M8.03,27.18c17.56-2.62,24.49,29.17,8.33,30.56C.13,59.14-6.49,29.35,8.03,27.18Z"/>
  </g>
</svg>