<svg width="20" height="24" viewBox="0 0 20 24" fill="none" xmlns="http://www.w3.org/2000/svg">
<path d="M15.9675 1.10339H4.03247C2.35768 1.10339 1 2.45208 1 4.11577V19.1945C1 20.8582 2.35768 22.2068 4.03247 22.2068H15.9675C17.6423 22.2068 19 20.8582 19 19.1945V4.11577C19 2.45208 17.6423 1.10339 15.9675 1.10339Z" stroke="#1D1D1B" stroke-width="2" stroke-miterlimit="10"/>
<path d="M4.42401 9.26656C4.34019 8.75975 4.77608 8.39037 5.63109 7.52278C7.5423 5.57283 7.76025 4.98011 8.36379 5.04884C8.68232 5.09179 8.79968 5.27218 9.7469 6.23426C10.4426 6.93865 11.021 7.47982 11.3815 7.81484C11.7336 7.46264 12.2952 6.87852 12.9574 6.13118C14.1393 4.79972 14.5752 4.12111 15.1452 4.2156C15.4805 4.26714 15.7907 4.57638 15.8745 4.9028C16.017 5.46116 15.4638 5.97656 14.374 7.10186C12.2281 9.32669 11.9934 9.82491 11.3899 9.75619C11.0797 9.72183 10.5852 9.27515 9.62955 8.39037C9.08468 7.88356 8.64879 7.45405 8.36379 7.16199C7.7351 7.86638 7.2573 8.39896 7.00582 8.69103C6.00831 9.81632 5.69815 10.1427 5.27903 10.0998C4.87667 10.0568 4.49945 9.67029 4.43239 9.26656H4.42401Z" fill="#1D1D1B"/>
<path d="M5.19571 12.5943C4.76848 12.6924 4.45015 13.0517 4.41664 13.4764C4.38313 13.9011 4.6512 14.3012 5.0533 14.4483C8.21148 14.4319 11.3697 14.4156 14.5278 14.3992C14.997 14.2931 15.3069 13.8684 15.2734 13.4274C15.2399 13.019 14.9216 12.6679 14.4943 12.5862H5.19571V12.5943Z" fill="#1D1D1B"/>
<path d="M5.19325 16.9392C4.93335 17.0372 4.74276 17.3965 4.72543 17.8212C4.7081 18.2459 4.86405 18.6461 5.10662 18.7931C7.00389 18.7768 8.8925 18.7604 10.7898 18.7441C11.067 18.6379 11.2576 18.2132 11.2403 17.7722C11.2229 17.3639 11.0324 17.0127 10.7725 16.931H5.19325V16.9392Z" fill="#1D1D1B"/>
</svg>
