<?xml version="1.0" encoding="UTF-8"?>
<svg id="Capa_2" data-name="Capa 2" xmlns="http://www.w3.org/2000/svg" viewBox="0 0 23.25 27.08">
  <defs>
    <style>
      .cls-1 {
        fill: #1d1d1b;
      }

      .cls-2 {
        fill: none;
        stroke: #000;
        stroke-miterlimit: 10;
        stroke-width: 2px;
      }
    </style>
  </defs>
  <g id="Capa_1-2" data-name="Capa 1">
    <g>
      <rect class="cls-2" x="1" y="1" width="21.25" height="25.08" rx="3.58" ry="3.58"/>
      <path class="cls-1" d="M4.99,10.68c-.1-.59.42-1.02,1.44-2.03,2.28-2.27,2.54-2.96,3.26-2.88.38.05.52.26,1.65,1.38.83.82,1.52,1.45,1.95,1.84.42-.41,1.09-1.09,1.88-1.96,1.41-1.55,1.93-2.34,2.61-2.23.4.06.77.42.87.8.17.65-.49,1.25-1.79,2.56-2.56,2.59-2.84,3.17-3.56,3.09-.37-.04-.96-.56-2.1-1.59-.65-.59-1.17-1.09-1.51-1.43-.75.82-1.32,1.44-1.62,1.78-1.19,1.31-1.56,1.69-2.06,1.64-.48-.05-.93-.5-1.01-.97Z"/>
      <path class="cls-1" d="M6,14.53c-.51.12-.89.56-.93,1.08-.04.52.28,1.01.76,1.19,3.77-.02,7.54-.04,11.31-.06.56-.13.93-.65.89-1.19-.04-.5-.42-.93-.93-1.03H6Z"/>
      <path class="cls-1" d="M5.95,19.92c-.3.12-.52.56-.54,1.08-.02.52.16,1.01.44,1.19,2.19-.02,4.37-.04,6.56-.06.32-.13.54-.65.52-1.19-.02-.5-.24-.93-.54-1.03h-6.44Z"/>
    </g>
  </g>
</svg>